<?xml version="1.0" encoding="UTF-8"?>
<!DOCTYPE svg PUBLIC "-//W3C//DTD SVG 1.1//EN" "http://www.w3.org/Graphics/SVG/1.1/DTD/svg11.dtd">
<svg xmlns="http://www.w3.org/2000/svg" version="1.1" width="1922px" height="1202px" style="shape-rendering:geometricPrecision; text-rendering:geometricPrecision; image-rendering:optimizeQuality; fill-rule:evenodd; clip-rule:evenodd" xmlns:xlink="http://www.w3.org/1999/xlink">
<g><path style="opacity:1" fill="#fefffe" d="M -0.5,-0.5 C 640.167,-0.5 1280.83,-0.5 1921.5,-0.5C 1921.5,400.167 1921.5,800.833 1921.5,1201.5C 1280.83,1201.5 640.167,1201.5 -0.5,1201.5C -0.5,1187.5 -0.5,1173.5 -0.5,1159.5C 441.5,1159.67 883.5,1159.5 1325.5,1159C 1332.89,1157.28 1337.73,1152.78 1340,1145.5C 1340.5,1082.83 1340.67,1020.17 1340.5,957.5C 1355.52,954.462 1360.35,945.795 1355,931.5C 1347.38,922.86 1338.54,921.36 1328.5,927C 1319.17,936 1319.17,945 1328.5,954C 1330.65,955.411 1332.98,956.245 1335.5,956.5C 1335.67,1019.17 1335.5,1081.83 1335,1144.5C 1333.19,1148.97 1330.03,1152.14 1325.5,1154C 883.5,1154.5 441.5,1154.67 -0.5,1154.5C -0.5,1149.17 -0.5,1143.83 -0.5,1138.5C 73.5008,1138.67 147.501,1138.5 221.5,1138C 228.237,1136.26 232.737,1132.1 235,1125.5C 235.333,1043.83 235.667,962.167 236,880.5C 236.833,873 241,868.833 248.5,868C 328.499,867.5 408.499,867.333 488.5,867.5C 491.648,878.584 498.982,882.75 510.5,880C 516.104,877.614 519.437,873.447 520.5,867.5C 588.167,867.5 655.833,867.5 723.5,867.5C 726.438,882.16 735.438,890.16 750.5,891.5C 750.167,967.17 750.5,1042.84 751.5,1118.5C 754.935,1122.06 758.935,1124.89 763.5,1127C 931.555,1128 1099.56,1127.66 1267.5,1126C 1272.71,1123.75 1276.21,1119.92 1278,1114.5C 1278.33,1036.5 1278.67,958.5 1279,880.5C 1279.83,873 1284,868.833 1291.5,868C 1378.83,867.333 1466.17,867.333 1553.5,868C 1561,868.833 1565.17,873 1566,880.5C 1566.33,959.833 1566.67,1039.17 1567,1118.5C 1570.73,1121.95 1574.9,1124.79 1579.5,1127C 1663.5,1127.67 1747.5,1127.67 1831.5,1127C 1838.24,1125.26 1842.74,1121.1 1845,1114.5C 1845.67,774.833 1845.67,435.167 1845,95.5C 1842.83,88.6667 1838.33,84.1667 1831.5,82C 1220.83,81.5 610.167,81.3333 -0.5,81.5C -0.5,69.1667 -0.5,56.8333 -0.5,44.5C 621.5,44.3333 1243.5,44.5 1865.5,45C 1871.03,46.5264 1874.53,50.0264 1876,55.5C 1877,419.888 1876.66,784.221 1875,1148.5C 1873.01,1152.49 1869.84,1154.99 1865.5,1156C 1758.83,1156.67 1652.17,1156.67 1545.5,1156C 1540,1154.5 1536.5,1151 1535,1145.5C 1534.17,1069.83 1534.33,994.164 1535.5,918.5C 1547.66,913.854 1551.16,905.52 1546,893.5C 1537.63,884.618 1528.96,884.285 1520,892.5C 1518.44,894.217 1517.61,896.217 1517.5,898.5C 1461.16,898.833 1404.83,898.5 1348.5,897.5C 1345.58,891.248 1340.91,889.415 1334.5,892C 1329.18,897.374 1329.18,902.708 1334.5,908C 1341,910.919 1345.67,909.085 1348.5,902.5C 1404.5,901.5 1460.5,901.167 1516.5,901.5C 1516.73,910.278 1521.06,915.945 1529.5,918.5C 1530.33,994.164 1530.83,1069.83 1531,1145.5C 1533.5,1152 1538,1156.5 1544.5,1159C 1651.5,1159.67 1758.5,1159.67 1865.5,1159C 1872.24,1157.26 1876.74,1153.1 1879,1146.5C 1879.67,782.833 1879.67,419.167 1879,55.5C 1877.17,48.3333 1872.67,43.8333 1865.5,42C 1243.5,41.5 621.5,41.3333 -0.5,41.5C -0.5,27.5 -0.5,13.5 -0.5,-0.5 Z"/></g>
<g><path style="opacity:1" fill="#00a8b4" d="M -0.5,41.5 C 621.5,41.3333 1243.5,41.5 1865.5,42C 1872.67,43.8333 1877.17,48.3333 1879,55.5C 1879.67,419.167 1879.67,782.833 1879,1146.5C 1876.74,1153.1 1872.24,1157.26 1865.5,1159C 1758.5,1159.67 1651.5,1159.67 1544.5,1159C 1538,1156.5 1533.5,1152 1531,1145.5C 1530.83,1069.83 1530.33,994.164 1529.5,918.5C 1521.06,915.945 1516.73,910.278 1516.5,901.5C 1460.5,901.167 1404.5,901.5 1348.5,902.5C 1345.67,909.085 1341,910.919 1334.5,908C 1329.18,902.708 1329.18,897.374 1334.5,892C 1340.91,889.415 1345.58,891.248 1348.5,897.5C 1404.83,898.5 1461.16,898.833 1517.5,898.5C 1517.61,896.217 1518.44,894.217 1520,892.5C 1528.96,884.285 1537.63,884.618 1546,893.5C 1551.16,905.52 1547.66,913.854 1535.5,918.5C 1534.33,994.164 1534.17,1069.83 1535,1145.5C 1536.5,1151 1540,1154.5 1545.5,1156C 1652.17,1156.67 1758.83,1156.67 1865.5,1156C 1869.84,1154.99 1873.01,1152.49 1875,1148.5C 1876.66,784.221 1877,419.888 1876,55.5C 1874.53,50.0264 1871.03,46.5264 1865.5,45C 1243.5,44.5 621.5,44.3333 -0.5,44.5C -0.5,43.5 -0.5,42.5 -0.5,41.5 Z"/></g>
<g><path style="opacity:1" fill="#00a8b4" d="M -0.5,81.5 C 610.167,81.3333 1220.83,81.5 1831.5,82C 1838.33,84.1667 1842.83,88.6667 1845,95.5C 1845.67,435.167 1845.67,774.833 1845,1114.5C 1842.74,1121.1 1838.24,1125.26 1831.5,1127C 1747.5,1127.67 1663.5,1127.67 1579.5,1127C 1574.9,1124.79 1570.73,1121.95 1567,1118.5C 1566.67,1039.17 1566.33,959.833 1566,880.5C 1565.17,873 1561,868.833 1553.5,868C 1466.17,867.333 1378.83,867.333 1291.5,868C 1284,868.833 1279.83,873 1279,880.5C 1278.67,958.5 1278.33,1036.5 1278,1114.5C 1276.21,1119.92 1272.71,1123.75 1267.5,1126C 1099.56,1127.66 931.555,1128 763.5,1127C 758.935,1124.89 754.935,1122.06 751.5,1118.5C 750.5,1042.84 750.167,967.17 750.5,891.5C 735.438,890.16 726.438,882.16 723.5,867.5C 655.833,867.5 588.167,867.5 520.5,867.5C 519.437,873.447 516.104,877.614 510.5,880C 498.982,882.75 491.648,878.584 488.5,867.5C 408.499,867.333 328.499,867.5 248.5,868C 241,868.833 236.833,873 236,880.5C 235.667,962.167 235.333,1043.83 235,1125.5C 232.737,1132.1 228.237,1136.26 221.5,1138C 147.501,1138.5 73.5008,1138.67 -0.5,1138.5C -0.5,1136.17 -0.5,1133.83 -0.5,1131.5C 71.5008,1131.67 143.501,1131.5 215.5,1131C 223,1130.17 227.167,1126 228,1118.5C 228.333,1035.83 228.667,953.167 229,870.5C 232.509,865.989 237.009,862.823 242.5,861C 324.5,860.667 406.5,860.333 488.5,860C 492.522,850.085 499.855,846.419 510.5,849C 515.593,851.091 518.926,854.758 520.5,860C 588.169,860.833 655.836,860.667 723.5,859.5C 728.796,845.435 738.963,838.435 754,838.5C 767.172,838.366 776.839,844.033 783,855.5C 787.31,870.707 782.476,881.873 768.5,889C 764.986,890.562 761.319,891.395 757.5,891.5C 757.333,963.501 757.5,1035.5 758,1107.5C 758.707,1114.54 762.541,1118.71 769.5,1120C 934.201,1120.99 1098.87,1120.66 1263.5,1119C 1268.38,1116.74 1270.88,1112.9 1271,1107.5C 1271.17,1028.13 1271.67,948.793 1272.5,869.5C 1276.45,866.046 1280.78,863.213 1285.5,861C 1376.83,860.333 1468.17,860.333 1559.5,861C 1564.58,863.294 1569.08,866.461 1573,870.5C 1573.33,949.5 1573.67,1028.5 1574,1107.5C 1574.71,1114.54 1578.54,1118.71 1585.5,1120C 1665.17,1120.67 1744.83,1120.67 1824.5,1120C 1832,1119.17 1836.17,1115 1837,1107.5C 1836.89,1027.98 1837.72,948.477 1839.5,869C 1838.68,612.838 1838.18,356.671 1838,100.5C 1836.71,93.5407 1832.54,89.7073 1825.5,89C 1216.83,88.5 608.167,88.3333 -0.5,88.5C -0.5,86.1667 -0.5,83.8333 -0.5,81.5 Z"/></g>
<g><path style="opacity:1" fill="#fefffe" d="M -0.5,88.5 C 608.167,88.3333 1216.83,88.5 1825.5,89C 1832.54,89.7073 1836.71,93.5407 1838,100.5C 1838.18,356.671 1838.68,612.838 1839.5,869C 1837.72,948.477 1836.89,1027.98 1837,1107.5C 1836.17,1115 1832,1119.17 1824.5,1120C 1744.83,1120.67 1665.17,1120.67 1585.5,1120C 1578.54,1118.71 1574.71,1114.54 1574,1107.5C 1573.67,1028.5 1573.33,949.5 1573,870.5C 1569.08,866.461 1564.58,863.294 1559.5,861C 1468.17,860.333 1376.83,860.333 1285.5,861C 1280.78,863.213 1276.45,866.046 1272.5,869.5C 1271.67,948.793 1271.17,1028.13 1271,1107.5C 1270.88,1112.9 1268.38,1116.74 1263.5,1119C 1098.87,1120.66 934.201,1120.99 769.5,1120C 762.541,1118.71 758.707,1114.54 758,1107.5C 757.5,1035.5 757.333,963.501 757.5,891.5C 761.319,891.395 764.986,890.562 768.5,889C 782.476,881.873 787.31,870.707 783,855.5C 776.839,844.033 767.172,838.366 754,838.5C 738.963,838.435 728.796,845.435 723.5,859.5C 655.836,860.667 588.169,860.833 520.5,860C 518.926,854.758 515.593,851.091 510.5,849C 499.855,846.419 492.522,850.085 488.5,860C 406.5,860.333 324.5,860.667 242.5,861C 237.009,862.823 232.509,865.989 229,870.5C 228.667,953.167 228.333,1035.83 228,1118.5C 227.167,1126 223,1130.17 215.5,1131C 143.501,1131.5 71.5008,1131.67 -0.5,1131.5C -0.5,783.833 -0.5,436.167 -0.5,88.5 Z"/></g>
<g><path style="opacity:1" fill="#00a8b4" d="M 1766.5,634.5 C 1786.83,634.5 1807.17,634.5 1827.5,634.5C 1827.5,653.167 1827.5,671.833 1827.5,690.5C 1807.17,690.5 1786.83,690.5 1766.5,690.5C 1766.5,671.833 1766.5,653.167 1766.5,634.5 Z"/></g>
<g><path style="opacity:1" fill="#00a8b4" d="M 1766.5,718.5 C 1786.83,718.5 1807.17,718.5 1827.5,718.5C 1827.5,737.167 1827.5,755.833 1827.5,774.5C 1807.17,774.5 1786.83,774.5 1766.5,774.5C 1766.5,755.833 1766.5,737.167 1766.5,718.5 Z"/></g>
<g><path style="opacity:1" fill="#00a8b4" d="M 1766.5,801.5 C 1786.83,801.5 1807.17,801.5 1827.5,801.5C 1827.5,820.167 1827.5,838.833 1827.5,857.5C 1807.17,857.5 1786.83,857.5 1766.5,857.5C 1766.5,838.833 1766.5,820.167 1766.5,801.5 Z"/></g>
<g><path style="opacity:1" fill="#fefffe" d="M 747.5,846.5 C 758.019,844.839 766.852,847.839 774,855.5C 778.968,864.979 777.134,873.146 768.5,880C 755.74,886.557 744.24,884.724 734,874.5C 728.581,860.34 733.081,851.006 747.5,846.5 Z"/></g>
<g><path style="opacity:1" fill="#fefffe" d="M 500.5,856.5 C 509.657,855.489 513.49,859.489 512,868.5C 507,873.833 502,873.833 497,868.5C 495.593,863.643 496.76,859.643 500.5,856.5 Z"/></g>
<g><path style="opacity:1" fill="#00a8b4" d="M 270.5,878.5 C 277.773,877.782 282.773,880.782 285.5,887.5C 426.499,888.333 567.499,888.833 708.5,889C 715.667,890.833 720.167,895.333 722,902.5C 722.167,934.172 722.667,965.839 723.5,997.5C 736.307,1000.79 741.14,1008.79 738,1021.5C 729.556,1032.53 719.389,1034.36 707.5,1027C 698.319,1015.8 699.985,1006.47 712.5,999C 714.813,998.338 717.146,997.838 719.5,997.5C 719.667,965.832 719.5,934.165 719,902.5C 717.526,897.026 714.026,893.526 708.5,892C 567.499,891.167 426.499,891.333 285.5,892.5C 281.016,901.89 274.349,903.89 265.5,898.5C 259.07,889.861 260.737,883.195 270.5,878.5 Z"/></g>
<g><path style="opacity:1" fill="#00a8b4" d="M 1584.5,886.5 C 1604.83,886.5 1625.17,886.5 1645.5,886.5C 1645.5,905.167 1645.5,923.833 1645.5,942.5C 1625.17,942.5 1604.83,942.5 1584.5,942.5C 1584.5,923.833 1584.5,905.167 1584.5,886.5 Z"/></g>
<g><path style="opacity:1" fill="#00a8b4" d="M 1673.5,886.5 C 1693.83,886.5 1714.17,886.5 1734.5,886.5C 1734.5,905.167 1734.5,923.833 1734.5,942.5C 1714.17,942.5 1693.83,942.5 1673.5,942.5C 1673.5,923.833 1673.5,905.167 1673.5,886.5 Z"/></g>
<g><path style="opacity:1" fill="#00a8b4" d="M 1765.5,886.5 C 1785.83,886.5 1806.17,886.5 1826.5,886.5C 1826.5,905.167 1826.5,923.833 1826.5,942.5C 1806.17,942.5 1785.83,942.5 1765.5,942.5C 1765.5,923.833 1765.5,905.167 1765.5,886.5 Z"/></g>
<g><path style="opacity:1" fill="#fefffe" d="M 1529.5,889.5 C 1543.58,890.313 1548.08,897.313 1543,910.5C 1537.48,915.948 1531.31,916.781 1524.5,913C 1519.05,907.477 1518.22,901.31 1522,894.5C 1524.17,892.177 1526.67,890.51 1529.5,889.5 Z"/></g>
<g><path style="opacity:1" fill="#00a8b4" d="M -0.5,1159.5 C -0.5,1157.83 -0.5,1156.17 -0.5,1154.5C 441.5,1154.67 883.5,1154.5 1325.5,1154C 1330.03,1152.14 1333.19,1148.97 1335,1144.5C 1335.5,1081.83 1335.67,1019.17 1335.5,956.5C 1332.98,956.245 1330.65,955.411 1328.5,954C 1319.17,945 1319.17,936 1328.5,927C 1338.54,921.36 1347.38,922.86 1355,931.5C 1360.35,945.795 1355.52,954.462 1340.5,957.5C 1340.67,1020.17 1340.5,1082.83 1340,1145.5C 1337.73,1152.78 1332.89,1157.28 1325.5,1159C 883.5,1159.5 441.5,1159.67 -0.5,1159.5 Z"/></g>
<g><path style="opacity:1" fill="#fefffe" d="M 1336.5,928.5 C 1349.05,928.536 1353.89,934.536 1351,946.5C 1345.44,952.924 1338.94,954.091 1331.5,950C 1323.81,940.634 1325.48,933.467 1336.5,928.5 Z"/></g>
<g><path style="opacity:1" fill="#00a8b4" d="M 304.5,939.5 C 324.833,939.5 345.167,939.5 365.5,939.5C 365.5,957.833 365.5,976.167 365.5,994.5C 345.167,994.5 324.833,994.5 304.5,994.5C 304.5,976.167 304.5,957.833 304.5,939.5 Z"/></g>
<g><path style="opacity:1" fill="#00a8b4" d="M 461.5,939.5 C 481.833,939.5 502.167,939.5 522.5,939.5C 522.5,957.833 522.5,976.167 522.5,994.5C 502.167,994.5 481.833,994.5 461.5,994.5C 461.5,976.167 461.5,957.833 461.5,939.5 Z"/></g>
<g><path style="opacity:1" fill="#00a8b4" d="M 623.5,939.5 C 643.833,939.5 664.167,939.5 684.5,939.5C 684.5,957.833 684.5,976.167 684.5,994.5C 664.167,994.5 643.833,994.5 623.5,994.5C 623.5,976.167 623.5,957.833 623.5,939.5 Z"/></g>
<g><path style="opacity:1" fill="#00a8b4" d="M 1584.5,970.5 C 1604.83,970.5 1625.17,970.5 1645.5,970.5C 1645.5,989.167 1645.5,1007.83 1645.5,1026.5C 1625.17,1026.5 1604.83,1026.5 1584.5,1026.5C 1584.5,1007.83 1584.5,989.167 1584.5,970.5 Z"/></g>
<g><path style="opacity:1" fill="#00a8b4" d="M 1673.5,970.5 C 1693.83,970.5 1714.17,970.5 1734.5,970.5C 1734.5,989.167 1734.5,1007.83 1734.5,1026.5C 1714.17,1026.5 1693.83,1026.5 1673.5,1026.5C 1673.5,1007.83 1673.5,989.167 1673.5,970.5 Z"/></g>
<g><path style="opacity:1" fill="#00a8b4" d="M 1765.5,970.5 C 1785.83,970.5 1806.17,970.5 1826.5,970.5C 1826.5,989.167 1826.5,1007.83 1826.5,1026.5C 1806.17,1026.5 1785.83,1026.5 1765.5,1026.5C 1765.5,1007.83 1765.5,989.167 1765.5,970.5 Z"/></g>
<g><path style="opacity:1" fill="#fefffe" d="M 716.5,1000.5 C 724.32,999.599 730.487,1002.27 735,1008.5C 737.574,1022.93 731.408,1029.43 716.5,1028C 704.464,1023.56 701.798,1015.89 708.5,1005C 711.099,1003.2 713.766,1001.7 716.5,1000.5 Z"/></g>
<g><path style="opacity:1" fill="#00a8b4" d="M 769.5,1053.5 C 789.833,1053.5 810.167,1053.5 830.5,1053.5C 830.5,1072.17 830.5,1090.83 830.5,1109.5C 810.167,1109.5 789.833,1109.5 769.5,1109.5C 769.5,1090.83 769.5,1072.17 769.5,1053.5 Z"/></g>
<g><path style="opacity:1" fill="#00a8b4" d="M 978.5,1053.5 C 998.833,1053.5 1019.17,1053.5 1039.5,1053.5C 1039.5,1072.17 1039.5,1090.83 1039.5,1109.5C 1019.17,1109.5 998.833,1109.5 978.5,1109.5C 978.5,1090.83 978.5,1072.17 978.5,1053.5 Z"/></g>
<g><path style="opacity:1" fill="#00a8b4" d="M 1198.5,1053.5 C 1218.83,1053.5 1239.17,1053.5 1259.5,1053.5C 1259.5,1072.17 1259.5,1090.83 1259.5,1109.5C 1239.17,1109.5 1218.83,1109.5 1198.5,1109.5C 1198.5,1090.83 1198.5,1072.17 1198.5,1053.5 Z"/></g>
<g><path style="opacity:1" fill="#00a8b4" d="M 1584.5,1053.5 C 1604.83,1053.5 1625.17,1053.5 1645.5,1053.5C 1645.5,1072.17 1645.5,1090.83 1645.5,1109.5C 1625.17,1109.5 1604.83,1109.5 1584.5,1109.5C 1584.5,1090.83 1584.5,1072.17 1584.5,1053.5 Z"/></g>
<g><path style="opacity:1" fill="#00a8b4" d="M 1674.5,1053.5 C 1694.83,1053.5 1715.17,1053.5 1735.5,1053.5C 1735.5,1072.17 1735.5,1090.83 1735.5,1109.5C 1715.17,1109.5 1694.83,1109.5 1674.5,1109.5C 1674.5,1090.83 1674.5,1072.17 1674.5,1053.5 Z"/></g>
<g><path style="opacity:1" fill="#00a8b4" d="M 1765.5,1053.5 C 1785.83,1053.5 1806.17,1053.5 1826.5,1053.5C 1826.5,1072.17 1826.5,1090.83 1826.5,1109.5C 1806.17,1109.5 1785.83,1109.5 1765.5,1109.5C 1765.5,1090.83 1765.5,1072.17 1765.5,1053.5 Z"/></g>
<g><path style="opacity:1" fill="#00a8b4" d="M 304.5,1054.5 C 324.833,1054.5 345.167,1054.5 365.5,1054.5C 365.5,1072.83 365.5,1091.17 365.5,1109.5C 345.167,1109.5 324.833,1109.5 304.5,1109.5C 304.5,1091.17 304.5,1072.83 304.5,1054.5 Z"/></g>
<g><path style="opacity:1" fill="#00a8b4" d="M 461.5,1054.5 C 481.833,1054.5 502.167,1054.5 522.5,1054.5C 522.5,1072.83 522.5,1091.17 522.5,1109.5C 502.167,1109.5 481.833,1109.5 461.5,1109.5C 461.5,1091.17 461.5,1072.83 461.5,1054.5 Z"/></g>
<g><path style="opacity:1" fill="#00a8b4" d="M 623.5,1054.5 C 643.833,1054.5 664.167,1054.5 684.5,1054.5C 684.5,1072.83 684.5,1091.17 684.5,1109.5C 664.167,1109.5 643.833,1109.5 623.5,1109.5C 623.5,1091.17 623.5,1072.83 623.5,1054.5 Z"/></g>
<g><path style="opacity:1" fill="#fefffe" d="M 981.5,1056.5 C 999.833,1056.5 1018.17,1056.5 1036.5,1056.5C 1036.5,1073.17 1036.5,1089.83 1036.5,1106.5C 1018.17,1106.5 999.833,1106.5 981.5,1106.5C 981.5,1089.83 981.5,1073.17 981.5,1056.5 Z"/></g>
<g><path style="opacity:1" fill="#fefffe" d="M 1201.5,1056.5 C 1219.83,1056.5 1238.17,1056.5 1256.5,1056.5C 1256.5,1073.17 1256.5,1089.83 1256.5,1106.5C 1238.17,1106.5 1219.83,1106.5 1201.5,1106.5C 1201.5,1089.83 1201.5,1073.17 1201.5,1056.5 Z"/></g>
</svg>
